<?xml version="1.0" standalone="no"?>
<!DOCTYPE svg PUBLIC "-//W3C//DTD SVG 20010904//EN"
 "http://www.w3.org/TR/2001/REC-SVG-20010904/DTD/svg10.dtd">
<svg version="1.0" xmlns="http://www.w3.org/2000/svg"
 width="1201.000000pt" height="1201.000000pt" viewBox="0 0 1201.000000 1201.000000"
 preserveAspectRatio="xMidYMid meet">
<metadata>
Created by potrace 1.16, written by Peter Selinger 2001-2019
</metadata>
<g transform="translate(0.000000,1201.000000) scale(0.100000,-0.100000)"
fill="#000000" stroke="none">
<path d="M3463 6875 c-38 -16 -73 -68 -73 -108 0 -36 70 -201 81 -190 4 4 28
54 54 110 l46 102 -26 51 c-27 54 -33 57 -82 35z"/>
<path d="M3617 6859 c-8 -19 -186 -415 -396 -881 -209 -466 -381 -849 -381
-853 0 -9 72 -5 112 7 69 20 123 79 175 189 45 95 48 99 78 99 18 0 51 -10 75
-23 53 -28 98 -102 107 -176 3 -28 9 -51 13 -51 19 0 45 129 44 220 0 83 -3
102 -27 151 -15 31 -49 77 -76 102 l-48 45 233 519 c261 579 260 575 202 638
-19 20 -47 38 -65 41 -29 6 -33 3 -46 -27z"/>
<path d="M7705 6666 c-151 -30 -252 -84 -361 -191 -126 -125 -188 -258 -201
-435 -8 -114 15 -228 69 -340 33 -69 57 -101 127 -171 72 -72 102 -94 181
-132 385 -188 830 -9 971 390 30 84 37 265 15 367 -54 240 -250 438 -495 501
-90 23 -221 27 -306 11z m240 -317 c70 -26 142 -95 181 -174 27 -56 29 -68 29
-175 0 -110 -1 -118 -33 -182 -40 -82 -112 -150 -184 -174 -77 -25 -188 -16
-257 21 -156 86 -221 299 -149 493 29 78 124 174 194 195 71 22 153 21 219 -4z"/>
<path d="M1903 6630 c-50 -30 -63 -66 -63 -169 l0 -90 248 -3 c286 -3 310 -9
343 -82 39 -87 17 -176 -54 -217 -40 -23 -53 -24 -252 -29 -138 -3 -217 -9
-231 -17 -50 -29 -54 -59 -54 -378 l0 -297 123 4 c207 7 210 11 217 281 l5
198 140 -241 140 -240 203 0 c111 0 202 3 202 6 0 3 -74 115 -165 249 -91 134
-168 250 -171 259 -4 10 -1 16 7 16 33 0 137 60 173 100 68 76 81 117 81 260
0 122 -1 128 -33 192 -40 82 -111 149 -188 178 -76 28 -203 40 -439 40 -181 0
-203 -2 -232 -20z"/>
<path d="M4349 6627 c-18 -12 -39 -34 -46 -47 -10 -19 -13 -166 -13 -629 l0
-603 129 3 c145 4 169 14 204 80 17 31 18 61 14 384 -2 193 -7 359 -11 370 -5
11 14 -19 41 -68 26 -48 160 -240 297 -427 l248 -340 107 0 c128 0 172 11 205
51 l26 31 0 610 0 610 -136 -4 -136 -3 -35 -38 -34 -38 3 -379 3 -380 -39 78
c-22 43 -148 227 -290 420 l-251 342 -126 0 c-115 0 -129 -2 -160 -23z"/>
<path d="M5880 6628 c-19 -13 -40 -35 -47 -48 -10 -19 -13 -166 -13 -627 l0
-603 163 0 c254 0 481 17 567 41 212 59 361 212 417 429 22 87 22 273 0 360
-46 178 -154 314 -307 388 -119 58 -212 72 -505 79 l-240 5 -35 -24z m554
-308 c77 -29 137 -89 162 -161 14 -40 19 -82 19 -164 0 -98 -3 -116 -26 -165
-14 -30 -39 -68 -55 -84 -57 -57 -182 -96 -306 -96 l-48 0 0 351 0 352 98 -6
c65 -3 117 -13 156 -27z"/>
<path d="M8904 6640 c-23 -9 -74 -66 -74 -82 0 -5 -40 -271 -90 -590 -49 -319
-90 -590 -90 -600 0 -19 6 -20 128 -16 135 4 171 14 198 55 14 23 80 461 100
668 7 74 8 77 16 42 6 -28 167 -592 214 -749 4 -15 17 -18 77 -18 88 0 137 13
165 43 15 16 51 122 117 351 53 181 99 345 104 365 8 35 8 35 15 -24 12 -104
88 -679 93 -709 l6 -28 113 4 c127 4 155 15 186 79 18 35 17 42 -72 619 -50
321 -90 587 -90 592 0 4 -66 8 -147 8 -167 0 -200 -11 -228 -72 -12 -27 -171
-557 -203 -678 -6 -23 -11 -30 -15 -20 -4 8 -45 148 -92 310 -48 162 -98 332
-111 378 l-25 82 -137 -1 c-75 0 -146 -4 -158 -9z"/>
<path d="M3637 6418 c-26 -57 -47 -109 -47 -115 0 -7 61 -148 135 -312 l134
-300 -53 -55 c-57 -58 -88 -122 -100 -206 -7 -48 13 -183 34 -235 l13 -30 12
55 c16 72 23 88 53 129 27 37 91 70 135 71 25 0 31 -8 71 -92 23 -51 55 -107
70 -125 40 -47 123 -85 178 -81 l45 3 -312 692 c-171 381 -314 695 -317 698
-2 3 -26 -41 -51 -97z"/>
</g>
</svg>
