<?xml version="1.0" standalone="no"?>
<!DOCTYPE svg PUBLIC "-//W3C//DTD SVG 20010904//EN" "http://www.w3.org/TR/2001/REC-SVG-20010904/DTD/svg10.dtd">
<svg version="1.0" xmlns="http://www.w3.org/2000/svg"
    width="499.000000pt" height="499.000000pt" viewBox="0 0 499.000000 499.000000"
    preserveAspectRatio="xMidYMid meet">
    <metadata> Created by potrace 1.16, written by Peter Selinger 2001-2019 </metadata>
    <g transform="translate(0.000000,499.000000) scale(0.100000,-0.100000)"
        fill="#ffffff" stroke="none">
        <path
            d="M1497 2828 c-8 -18 -56 -125 -107 -238 -120 -268 -127 -282 -166
-368 -39 -85 -40 -92 -15 -92 29 0 71 39 88 81 13 32 20 39 43 39 30 0 69 -38
71 -69 1 -29 18 21 18 57 1 37 -17 78 -47 105 -20 18 -19 19 45 160 35 78 71
158 80 177 9 19 24 53 34 74 24 50 24 69 1 89 -25 23 -27 22 -45 -15z" />
        <path
            d="M3159 2754 c-58 -18 -128 -78 -157 -138 -61 -121 -28 -258 82 -345
135 -107 357 -51 429 107 32 69 29 170 -6 239 -64 124 -208 181 -348 137z
m181 -142 c61 -61 71 -148 26 -217 -43 -66 -139 -78 -199 -25 -106 93 -45 280
92 280 37 0 49 -6 81 -38z" />
        <path
            d="M788 2749 c-13 -7 -18 -23 -18 -54 l0 -45 105 0 c120 0 145 -12 145
-73 0 -55 -23 -67 -128 -67 -123 0 -122 1 -122 -156 l0 -124 54 0 c32 0 58 5
64 13 6 7 12 53 14 103 l3 89 60 -102 60 -103 78 0 c91 0 91 -8 0 122 -29 42
-53 81 -53 86 0 6 10 12 23 16 12 3 36 19 52 36 23 24 30 41 33 88 6 89 -33
149 -113 171 -50 14 -234 14 -257 0z" />
        <path
            d="M1802 2748 c-9 -9 -12 -82 -12 -265 l0 -253 53 0 c29 0 58 5 65 12 8
8 12 63 12 177 l1 166 22 -41 c12 -23 67 -103 122 -178 l99 -136 56 0 c31 0
61 5 68 12 9 9 12 82 12 265 l0 253 -46 0 c-85 0 -84 2 -84 -187 l0 -167 -37
61 c-21 34 -76 113 -123 177 l-85 115 -55 1 c-31 0 -61 -5 -68 -12z" />
        <path
            d="M2438 2743 c-16 -18 -18 -45 -18 -266 l0 -247 128 0 c160 0 216 15
276 73 97 93 100 274 7 375 -53 57 -109 75 -251 80 -114 4 -126 3 -142 -15z
m245 -119 c19 -9 41 -29 51 -44 19 -34 21 -134 3 -169 -17 -35 -64 -59 -122
-63 l-50 -3 -3 148 -3 147 45 0 c25 0 61 -7 79 -16z" />
        <path
            d="M3691 2751 c-9 -6 -21 -53 -33 -123 -24 -148 -58 -376 -58 -389 0 -6
24 -9 57 -7 73 4 77 10 99 191 l17 138 29 -98 c16 -54 38 -128 49 -165 l20
-68 44 0 c32 0 47 5 53 18 5 9 28 82 51 161 23 80 43 147 46 149 3 3 5 -12 5
-34 1 -28 27 -220 40 -291 0 -2 22 -3 49 -3 79 0 79 2 48 218 -15 103 -32 215
-38 250 l-11 62 -63 0 c-40 0 -67 -5 -74 -13 -11 -14 -57 -157 -82 -254 -7
-29 -16 -53 -19 -53 -4 0 -17 35 -29 78 -12 42 -34 114 -47 160 l-25 82 -57 0
c-31 0 -63 -4 -71 -9z" />
        <path
            d="M1510 2652 c-16 -37 -16 -37 41 -162 l57 -125 -28 -32 c-33 -37 -45
-86 -35 -134 l7 -33 15 30 c35 69 82 73 111 11 22 -46 58 -77 91 -77 22 0 22
-3 -51 160 -56 123 -79 174 -128 283 -29 64 -56 117 -59 117 -3 0 -13 -17 -21
-38z" />
    </g>
</svg>